:SAMPLES-PER-SECOND 30
:FULLY-SPECIFIED
:DEGREES
215
root  90.5922 19.4991 2.73573 -24.7606 88.4471 -67.5699
RightUpLeg  -49.4498 6.17727 7.70905
RightLeg  115.313 8.81275 5.43018
RightFoot  2.30957 0.873112 -6.44206
RightToes  1.16415e-010 -3.18055e-015 8.94531e-016
Spine  34.2322 6.97576 0.436594
Spine1  22.1117 3.50631 12.0871
HEad  51.2862 25.4277 -21.04
LeftShoulder1  0 -2.69403e-036 -1.28585e-037
LeftArm  29.4867 -74.2305 -107.784
LeftForeArm  -2.31954 -1.81962 16.1625
LeftHand  -16.8753 -1.54488 110.571
RightShoulder  -2.48481e-017 0 -8.08114e-019
RightArm  -0.686819 44.7691 76.0625
RightForeArm  -28.3022 5.78612 2.04732
RightHand  -16.9093 -16.3895 131.704
LeftUpLeg  -36.2958 -7.64679 2.44033
LeftLeg  96.4878 -10.8948 -18.4751
LeftFoot  22.5224 1.39954 -4.10096
LeftToes  4.502e-010 -1.85808e-011 5.37561e-011
216
root  91.2257 19.4322 2.69774 -92.1806 88.6821 -133.455
RightUpLeg  -53.9399 3.39387 9.1649
RightLeg  121.032 7.58878 6.51701
RightFoot  2.16084 0.7701 -5.74108
RightToes  1.16415e-010 -3.18055e-015 8.94531e-016
Spine  35.2848 6.13968 1.04697
Spine1  23.0272 2.20859 13.4783
HEad  50.6511 25.4707 -23.1049
LeftShoulder1  0 -2.69403e-036 -1.28585e-037
LeftArm  38.1788 -75.7623 -113.764
LeftForeArm  -24.2479 2.54066 13.0916
LeftHand  -24.2951 -6.61757 108.04
RightShoulder  -2.48481e-017 0 -8.08114e-019
RightArm  -1.02128 44.3796 76.7625
RightForeArm  -32.1491 6.48763 1.7256
RightHand  -22.1361 -19.7632 130.09
LeftUpLeg  -32.8557 -9.30514 2.65308
LeftLeg  94.662 -11.449 -18.0771
LeftFoot  22.5979 1.36878 -3.99649
LeftToes  4.502e-010 -1.85808e-011 5.37561e-011
217
root  91.94 19.3615 2.68054 -146.534 87.6188 173.966
RightUpLeg  -57.4609 0.692253 9.82581
RightLeg  125.474 7.05613 6.43209
RightFoot  1.76935 0.453943 -3.4599
RightToes  1.16415e-010 -3.18055e-015 8.94531e-016
Spine  36.2646 5.24017 1.66015
Spine1  23.9955 1.00532 14.4022
HEad  50.1098 25.5517 -24.8231
LeftShoulder1  0 -2.69403e-036 -1.28585e-037
LeftArm  43.0405 -75.5811 -118.489
LeftForeArm  -38.0395 3.51595 11.7215
LeftHand  -26.0773 -10.6068 98.0892
RightShoulder  -2.48481e-017 0 -8.08114e-019
RightArm  -1.42057 43.2542 76.9825
RightForeArm  -32.818 7.47361 1.25314
RightHand  -23.8583 -21.0999 128.861
LeftUpLeg  -28.79 -11.3712 2.52616
LeftLeg  92.3335 -12.1056 -18.2675
LeftFoot  22.843 1.54458 -4.50168
LeftToes  4.502e-010 -1.85808e-011 5.37561e-011
218
root  92.7097 19.3245 2.6796 -157.569 86.413 163.866
RightUpLeg  -61.0613 -1.01403 9.76647
RightLeg  128.369 7.15282 5.79012
RightFoot  1.61781 0.395346 -3.17833
RightToes  1.16415e-010 -3.18055e-015 8.94531e-016
Spine  36.1709 4.79663 2.11339
Spine1  25.1988 -0.0355175 15.9954
HEad  49.7053 25.6089 -26.4044
LeftShoulder1  0 -2.69403e-036 -1.28585e-037
LeftArm  41.0425 -74.2895 -120.016
LeftForeArm  -39.3068 3.70191 12.4749
LeftHand  -25.8411 -11.1637 96.2672
RightShoulder  -2.48481e-017 0 -8.08114e-019
RightArm  -1.2486 41.9256 76.9352
RightForeArm  -22.7339 7.37586 1.17117
RightHand  -14.9268 -15.8165 128.731
LeftUpLeg  -25.4606 -13.2114 2.40561
LeftLeg  89.7175 -12.8797 -19.1553
LeftFoot  23.3211 1.78356 -5.15188
LeftToes  4.502e-010 -1.85808e-011 5.37561e-011
219
root  93.5235 19.178 2.67653 -160.634 85.2694 160.818
RightUpLeg  -63.7222 -2.70167 9.37518
RightLeg  129.787 6.80421 5.95263
RightFoot  2.40136 1.76788 -12.8845
RightToes  1.16415e-010 -3.18055e-015 8.94531e-016
Spine  34.9212 4.50832 2.40703
Spine1  26.7195 -1.06661 17.5112
HEad  49.2666 25.3925 -27.9678
LeftShoulder1  0 -2.69403e-036 -1.28585e-037
LeftArm  35.3634 -72.6121 -118.717
LeftForeArm  -41.4548 2.2439 13.5652
LeftHand  -29.4844 -12.5259 99.3448
RightShoulder  -2.48481e-017 0 -8.08114e-019
RightArm  -1.37355 40.741 77.0477
RightForeArm  -7.41767 5.79168 1.57574
RightHand  -1.48495 -7.71671 128.095
LeftUpLeg  -23.0355 -14.7601 2.52482
LeftLeg  87.2345 -13.709 -20.2187
LeftFoot  23.912 1.99762 -5.69291
LeftToes  4.502e-010 -1.85808e-011 5.37561e-011
220
root  94.3774 18.9083 2.66459 -160.149 84.1821 160.88
RightUpLeg  -64.4087 -4.33952 8.90194
RightLeg  129.932 5.22712 7.74289
RightFoot  4.33065 4.61236 -29.0004
RightToes  1.16415e-010 -3.18055e-015 8.94531e-016
Spine  33.2816 4.14713 2.89497
Spine1  28.0697 -1.69226 17.7866
HEad  48.8984 25.1224 -29.0059
LeftShoulder1  0 -2.69403e-036 -1.28585e-037
LeftArm  30.2862 -70.7126 -116.479
LeftForeArm  -25.5825 -1.21509 14.7774
LeftHand  -25.4089 -9.0773 101.701
RightShoulder  -2.48481e-017 0 -8.08114e-019
RightArm  -2.83488 38.8675 76.904
RightForeArm  -4.09797 5.38772 1.70032
RightHand  -0.000735584 -6.93093 125.715
LeftUpLeg  -21.0509 -15.7148 3.05485
LeftLeg  84.9364 -14.5393 -20.9399
LeftFoot  24.4766 2.17963 -6.12453
LeftToes  4.502e-010 -1.85808e-011 5.37561e-011
221
root  95.2902 18.6714 2.66362 -154.668 83.1533 165.556
RightUpLeg  -63.8505 -4.92062 8.67505
RightLeg  128.953 3.19196 10.3823
RightFoot  6.53072 6.62519 -37.2739
RightToes  1.16415e-010 -3.18055e-015 8.94531e-016
Spine  31.4122 4.11983 4.12998
Spine1  29.2054 -1.6841 18.0081
HEad  48.9639 24.1725 -29.5266
LeftShoulder1  0 -2.69403e-036 -1.28585e-037
LeftArm  28.7351 -68.4691 -116.731
LeftForeArm  1.45764 -4.67768 15.8443
LeftHand  -13.9361 -2.21346 98.6511
RightShoulder  -2.48481e-017 0 -8.08114e-019
RightArm  -3.77133 35.7023 75.294
RightForeArm  -6.6298 7.51827 0.92688
RightHand  -2.70172 -8.67348 123.756
LeftUpLeg  -19.5006 -16.1792 4.2305
LeftLeg  82.4543 -15.4152 -21.171
LeftFoot  24.8707 2.32751 -6.47916
LeftToes  4.502e-010 -1.85808e-011 5.37561e-011
222
root  96.3183 18.4878 2.69174 -147.423 81.4039 171.625
RightUpLeg  -62.6434 -5.09361 9.37747
RightLeg  127.184 2.64569 11.6425
RightFoot  6.32129 5.21103 -29.6547
RightToes  1.16415e-010 -3.18055e-015 8.94531e-016
Spine  29.0782 4.60165 6.51562
Spine1  30.3289 -1.42161 19.7484
HEad  49.8379 22.5339 -29.146
LeftShoulder1  0 -2.69403e-036 -1.28585e-037
LeftArm  32.3545 -65.6406 -121.295
LeftForeArm  16.4493 -6.25064 16.3855
LeftHand  -7.67757 1.3834 94.9675
RightShoulder  -2.48481e-017 0 -8.08114e-019
RightArm  -0.834097 31.4963 71.7539
RightForeArm  -1.2888 10.7857 -0.693003
RightHand  5.53455 -3.17129 123.418
LeftUpLeg  -18.2289 -17.0004 6.27501
LeftLeg  79.379 -16.3941 -20.8573
LeftFoot  25.1851 2.44338 -6.74891
LeftToes  4.502e-010 -1.85808e-011 5.37561e-011
223
root  97.4451 18.3556 2.75263 -138.233 79.3533 179.127
RightUpLeg  -61.4721 -4.90411 11.4204
RightLeg  124.766 3.92732 10.8446
RightFoot  2.88305 1.58071 -10.3402
RightToes  1.16415e-010 -3.18055e-015 8.94531e-016
Spine  27.0413 5.58993 10.0711
Spine1  30.0243 0.0115361 21.4989
HEad  51.768 20.2411 -27.7022
LeftShoulder1  0 -2.69403e-036 -1.28585e-037
LeftArm  36.3278 -61.694 -127.539
LeftForeArm  25.8379 -7.06226 16.6013
LeftHand  -4.71695 3.29555 92.5878
RightShoulder  -2.48481e-017 0 -8.08114e-019
RightArm  9.43296 24.0863 67.5238
RightForeArm  -6.6862 15.2725 -6.92788
RightHand  11.5089 0.95035 122.555
LeftUpLeg  -17.278 -17.4556 9.18603
LeftLeg  75.4779 -17.4139 -19.8415
LeftFoot  25.8935 2.61098 -7.07751
LeftToes  4.502e-010 -1.85808e-011 5.37561e-011
224
root  98.5822 18.2765 2.83144 -125.748 78.4216 -170.632
RightUpLeg  -60.8164 -3.83725 13.7838
RightLeg  121.969 5.18029 10.0219
RightFoot  -0.194218 -0.639803 5.22364
RightToes  1.16415e-010 -3.18055e-015 8.94531e-016
Spine  25.9003 7.06188 13.6466
Spine1  28.3831 3.40062 20.2761
HEad  53.9126 17.8681 -25.7505
LeftShoulder1  0 -2.69403e-036 -1.28585e-037
LeftArm  37.5608 -57.2295 -131.913
LeftForeArm  33.7655 -9.95179 16.5685
LeftHand  -2.26642 4.94455 89.7137
RightShoulder  -2.48481e-017 0 -8.08114e-019
RightArm  17.6816 13.5845 64.8968
RightForeArm  -33.0991 21.2789 -17.915
RightHand  -1.51203 -8.01247 120.512
LeftUpLeg  -16.7295 -16.1115 11.7473
LeftLeg  71.3437 -18.1142 -18.0691
LeftFoot  26.487 2.70987 -7.23429
LeftToes  4.502e-010 -1.85808e-011 5.37561e-011
225
root  99.6339 18.2892 2.90706 -110.463 79.0703 -157.776
RightUpLeg  -60.7358 -2.06591 14.6504
RightLeg  119.385 5.17955 10.99
RightFoot  0.535485 -1.00652 8.37453
RightToes  1.16415e-010 -3.18055e-015 8.94531e-016
Spine  25.6407 8.8589 15.5227
Spine1  26.3524 7.64868 16.5407
HEad  55.4698 16.5207 -23.6123
LeftShoulder1  0 -2.69403e-036 -1.28585e-037
LeftArm  38.6838 -53.6111 -134.305
LeftForeArm  39.7316 -13.3852 16.3928
LeftHand  -0.342843 6.34613 86.5386
RightShoulder  -2.48481e-017 0 -8.08114e-019
RightArm  13.57 4.95208 62.5165
RightForeArm  -43.9041 27.9047 -25.774
RightHand  -11.4194 -14.4536 122.337
LeftUpLeg  -16.8013 -13.5165 12.3624
LeftLeg  68.3317 -18.0795 -15.7933
LeftFoot  25.8303 2.47523 -6.70917
LeftToes  4.502e-010 -1.85808e-011 5.37561e-011
226
root  100.521 18.4165 2.98396 -100.285 80.4513 -149.494
RightUpLeg  -60.6207 -0.934376 13.4027
RightLeg  117.279 4.16364 13.7655
RightFoot  3.20519 -0.760893 5.34266
RightToes  1.16415e-010 -3.18055e-015 8.94531e-016
Spine  24.101 10.2003 13.7231
Spine1  28.6597 7.88823 16.8832
HEad  52.9166 16.0012 -26.1102
LeftShoulder1  0 -2.69403e-036 -1.28585e-037
LeftArm  28.4707 -47.6475 -125.688
LeftForeArm  46.673 -25.9148 20.7004
LeftHand  0.634942 7.11088 81.9515
RightShoulder  -2.48481e-017 0 -8.08114e-019
RightArm  7.03732 4.82326 61.4735
RightForeArm  -15.7795 31.1429 -29.4525
RightHand  9.90567 -1.66583 130.131
LeftUpLeg  -17.8975 -12.0217 11.0377
LeftLeg  67.6864 -17.2487 -13.4182
LeftFoot  24.1381 1.99746 -5.64705
LeftToes  4.502e-010 -1.85808e-011 5.37561e-011
